<?xml version="1.0" encoding="UTF-8" standalone="no"?>
<!-- Created with Inkscape (http://www.inkscape.org/) -->

<svg
   xmlns:dc="http://purl.org/dc/elements/1.1/"
   xmlns:cc="http://creativecommons.org/ns#"
   xmlns:rdf="http://www.w3.org/1999/02/22-rdf-syntax-ns#"
   xmlns:svg="http://www.w3.org/2000/svg"
   xmlns="http://www.w3.org/2000/svg"
   xmlns:sodipodi="http://sodipodi.sourceforge.net/DTD/sodipodi-0.dtd"
   xmlns:inkscape="http://www.inkscape.org/namespaces/inkscape"
   width="39.437382mm"
   height="57.139843mm"
   viewBox="0 0 39.437382 57.139843"
   version="1.1"
   id="svg4548"
   inkscape:version="0.92.3 (2405546, 2018-03-11)"
   sodipodi:docname="43 кафедра.svg">
  <defs
     id="defs4542" />
  <sodipodi:namedview
     id="base"
     pagecolor="#ffffff"
     bordercolor="#666666"
     borderopacity="1.0"
     inkscape:pageopacity="0.0"
     inkscape:pageshadow="2"
     inkscape:zoom="0.35"
     inkscape:cx="871.66996"
     inkscape:cy="-560.59062"
     inkscape:document-units="mm"
     inkscape:current-layer="layer1"
     showgrid="false"
     fit-margin-top="0"
     fit-margin-left="0"
     fit-margin-right="0"
     fit-margin-bottom="0"
     inkscape:window-width="1920"
     inkscape:window-height="1018"
     inkscape:window-x="-8"
     inkscape:window-y="63"
     inkscape:window-maximized="1" />
  <metadata
     id="metadata4545">
    <rdf:RDF>
      <cc:Work
         rdf:about="">
        <dc:format>image/svg+xml</dc:format>
        <dc:type
           rdf:resource="http://purl.org/dc/dcmitype/StillImage" />
        <dc:title></dc:title>
      </cc:Work>
    </rdf:RDF>
  </metadata>
  <g
     inkscape:label="Layer 1"
     inkscape:groupmode="layer"
     id="layer1"
     transform="translate(260.86744,56.629445)">
    <path
       style="fill:#000000;stroke-width:0.26458332"
       d="m -244.6485,-1.1943919 c -4.19576,-2.202368 -8.50378,-5.139299 -10.59069,-7.220045 -2.04827,-2.0422291 -5.09359,-6.6841741 -5.62825,-8.5233411 l 0.0485,-13.895449 c 7.75488,-0.47248 15.27823,-0.911846 22.84866,-0.442607 l 2.38125,0.190042 -4.75287,4.820274 c -2.61408,2.651152 -4.87922,4.820275 -5.03365,4.820275 -0.28614,0 -2.51661,-2.245987 -2.51661,-2.534121 0,-0.08702 0.86321,-0.976186 1.91823,-1.975932 l 1.91823,-1.817728 -1.19062,0.0136 c -0.65485,0.0075 -3.69094,0.15131 -6.74688,0.319617 l -5.509,0.258765 0.18187,9.95222 c 1.53787,4.463706 7.05736,9.5963211 14.0029,13.0214081 l 2.32576,1.14691 2.24815,-1.15117 c 6.6791,-3.420057 11.156,-7.3489641 13.3687,-11.7322941 l 0.766,-1.517433 v -16.637734 -16.637752 l -1.91823,-0.569399 c -9.14317,-2.25683 -20.79488,-2.848379 -30.95424,0.565992 l -0.20045,6.87312 0.99219,-0.151054 c 0.5457,-0.08308 1.85539,-0.232744 2.91041,-0.332587 1.05503,-0.09984 1.91823,-0.250424 1.91823,-0.334627 0,-0.0842 -0.44144,-0.605173 -0.98098,-1.157714 l -0.98098,-1.004619 1.28944,-1.309125 1.28944,-1.309126 8.37892,7.621243 -2.71198,0.398942 c -1.47908,0.217577 -5.50422,0.475054 -8.91697,0.831572 -3.41274,0.356518 -6.24255,0.648213 -6.28847,0.648213 -0.0459,0 -0.0516,-2.934843 -0.0127,-6.521876 l 0.0708,-6.521876 1.71884,-0.642662 c 2.51819,-0.941536 7.62215,-2.117484 11.19315,-2.578891 7.66733,-0.990693 16.81367,-0.100362 23.78429,2.315232 l 2.46205,0.853198 0.068,18.178444 0.068,18.178444 -0.63994,1.44702 c -2.34644,5.3057191 -7.80971,10.2376821 -15.69063,14.1647021 -1.77653,0.88522899 -3.32434,1.60734899 -3.43958,1.60471099 -0.11524,-0.003 -1.66691,-0.769782 -3.44814,-1.70476099 z M -260.85676,-35.27173 v -1.469678 l 1.25677,-0.159568 c 2.11277,-0.268245 11.2189,-0.948422 12.69737,-0.948422 h 1.3917 v 1.537131 1.537131 l -5.35782,0.319993 c -2.94679,0.175998 -6.39961,0.39494 -7.67291,0.486545 l -2.31511,0.166547 z m 18.50605,0.109395 c -1.19133,-0.964679 -0.44454,-3.21623 1.06675,-3.21623 0.82275,0 1.85845,1.032158 1.85845,1.852083 0,0.500872 -0.23486,0.940086 -0.69714,1.303714 -0.86045,0.676828 -1.44719,0.692742 -2.22806,0.06043 z"
       id="path4529"
       inkscape:connector-curvature="0"
       sodipodi:nodetypes="csccccssssccsccccccccccccscssccccsssccssscccccccccccscccsccccssccc" />
  </g>
</svg>
